<svg xmlns="http://www.w3.org/2000/svg" width="1200" height="750" viewBox="0 0 1200 750">
  <defs>
    <linearGradient id="g1" x1="0%" y1="0%" x2="100%" y2="100%">
      <stop offset="0%" style="stop-color:#1A0520;stop-opacity:1" />
      <stop offset="50%" style="stop-color:#2D1040;stop-opacity:1" />
      <stop offset="100%" style="stop-color:#0D1A30;stop-opacity:1" />
    </linearGradient>
  </defs>
  <rect width="1200" height="750" fill="url(#g1)"/>
  <g transform="translate(200,120)">
    <rect x="0" y="0" width="80" height="48" rx="8" fill="#9945FF" opacity="0.15"/>
    <rect x="100" y="0" width="120" height="48" rx="8" fill="#9945FF" opacity="0.1"/>
    <rect x="240" y="0" width="80" height="48" rx="8" fill="#0066FF" opacity="0.15"/>
    <rect x="340" y="0" width="100" height="48" rx="8" fill="#0066FF" opacity="0.1"/>
  </g>
  <g transform="translate(200,190)">
    <rect x="0" y="0" width="80" height="36" rx="6" fill="#00FFAA" opacity="0.12"/>
    <rect x="100" y="0" width="80" height="36" rx="6" fill="#00FFAA" opacity="0.08"/>
    <rect x="200" y="0" width="120" height="36" rx="6" fill="#00E5FF" opacity="0.1"/>
  </g>
  <g transform="translate(200,500)">
    <circle cx="20" cy="-10" r="12" fill="#9945FF" opacity="0.2"/>
    <circle cx="70" cy="-10" r="12" fill="#0066FF" opacity="0.2"/>
    <circle cx="120" cy="-10" r="12" fill="#00FFAA" opacity="0.2"/>
    <circle cx="170" cy="-10" r="12" fill="#00E5FF" opacity="0.2"/>
    <circle cx="220" cy="-10" r="12" fill="#FF2D55" opacity="0.15"/>
    <rect x="0" y="10" width="280" height="10" rx="5" fill="#F5F5F7" opacity="0.05"/>
  </g>
  <g font-family="Space Grotesk, sans-serif" text-anchor="middle">
    <text x="600" y="400" fill="#F5F5F7" font-size="32" font-weight="700" letter-spacing="2">AURORA DESIGN SYSTEM</text>
    <text x="600" y="430" fill="#A1A1AA" font-size="16" font-weight="400" letter-spacing="4">200+ COMPONENTS • 40+ PRODUCTS</text>
  </g>
</svg>